<svg id="Layer_1" data-name="Layer 1" xmlns="http://www.w3.org/2000/svg" xmlns:xlink="http://www.w3.org/1999/xlink" viewBox="0 0 1558 678"><defs><style>.cls-1{fill:#69c2f9;}.cls-2,.cls-3{fill:#0b415e;}.cls-3{opacity:0.1;}.cls-4{fill:#fff;}</style></defs><title>digital Curency-2</title><rect class="cls-1" width="1558" height="678"/><path class="cls-2" d="M77.67,128.12H94.73c21,0,32.19,12.18,32.19,33.83s-11.24,34.33-31.81,34.33H77.67Zm16.41,61c15.93,0,23.88-10,23.88-27.22S110,135.23,94.08,135.23H86.35v53.94Z" transform="translate(10 7)"/><path class="cls-2" d="M139.18,129.9c0-3.35,2.58-5.52,5.9-5.52s5.9,2.17,5.9,5.52a5.91,5.91,0,0,1-11.8,0Zm1.57,15.9h8.54v50.48h-8.54Z" transform="translate(10 7)"/><path class="cls-2" d="M162.47,206c0-4.32,2.75-8.39,7.4-11.41v-.41a9.36,9.36,0,0,1-4.52-8.28c0-4.19,3-7.53,5.56-9.37v-.41a17.57,17.57,0,0,1-6.54-13.56c0-11,8.7-18,18.94-18a20.52,20.52,0,0,1,7.13,1.25h17.61v6.57H197.68a14.55,14.55,0,0,1,4.12,10.39c0,10.81-8.17,17.5-18.49,17.5a17.94,17.94,0,0,1-7.52-1.71c-1.83,1.53-3.21,3.2-3.21,6,0,3.2,2.07,5.47,8.84,5.47h9.82c11.74,0,17.64,3.69,17.64,12.06,0,9.38-9.92,17.46-25.52,17.46C171,219.51,162.47,214.67,162.47,206Zm38-2.64c0-4.67-3.54-6.27-10.17-6.27h-8.71a28.53,28.53,0,0,1-6.56-.75c-3.61,2.56-5.15,5.57-5.15,8.46,0,5.43,5.47,8.85,14.64,8.85C194.18,213.62,200.51,208.6,200.51,203.33ZM194,162.53c0-7.34-4.78-11.79-10.73-11.79s-10.72,4.39-10.72,11.79,4.91,12,10.72,12S194,169.88,194,162.53Z" transform="translate(10 7)"/><path class="cls-2" d="M217.07,129.9c0-3.35,2.58-5.52,5.91-5.52s5.9,2.17,5.9,5.52a5.92,5.92,0,0,1-11.81,0Zm1.57,15.9h8.54v50.48h-8.54Z" transform="translate(10 7)"/><path class="cls-2" d="M245.68,180.67V152.75h-7.51v-6.46l7.89-.49,1-14.16h7.14V145.8H267.9v6.95H254.23v28.07c0,6.17,2,9.74,7.8,9.74a16.83,16.83,0,0,0,5.75-1.35l1.65,6.44a30.14,30.14,0,0,1-9.36,1.87C249.32,197.52,245.68,190.71,245.68,180.67Z" transform="translate(10 7)"/><path class="cls-2" d="M274,183.17c0-11,9.49-16.49,31-18.83,0-6.5-2.18-12.76-10.42-12.76-5.84,0-11.1,2.77-15.06,5.42l-3.34-5.86c4.64-3,11.73-6.59,19.83-6.59,12.32,0,17.53,8.19,17.53,20.76v31h-7.06l-.72-6h-.28c-4.81,4-10.43,7.28-16.7,7.28C280.32,197.52,274,192.28,274,183.17Zm31,.79v-14c-16.92,2-22.64,6.18-22.64,12.63,0,5.74,3.89,8.07,8.85,8.07S300.1,188.27,305,184Z" transform="translate(10 7)"/><path class="cls-2" d="M329.45,186.14V122.29H338v64.47c0,2.61,1.14,3.65,2.39,3.65a7.34,7.34,0,0,0,1.87-.21l1.15,6.53a13.84,13.84,0,0,1-4.91.79C332.09,197.52,329.45,193.44,329.45,186.14Z" transform="translate(10 7)"/><path class="cls-2" d="M373.54,162.26c0-22,13-35.39,30.25-35.39a25.38,25.38,0,0,1,18.75,8.41l-4.76,5.65c-3.58-3.83-8.09-6.43-13.84-6.43-12.88,0-21.44,10.55-21.44,27.53,0,17.13,8.18,27.87,21.1,27.87,6.51,0,11.45-2.83,15.8-7.65l4.76,5.44c-5.39,6.25-12.06,9.83-20.92,9.83C386.27,197.52,373.54,184.39,373.54,162.26Z" transform="translate(10 7)"/><path class="cls-2" d="M434.29,177.78v-32h8.54v30.88c0,9.4,2.85,13.43,9.53,13.43,5.16,0,8.73-2.56,13.51-8.51V145.8h8.55v50.48h-7.06l-.72-7.91h-.29c-4.68,5.51-9.72,9.15-16.65,9.15C439.07,197.52,434.29,190.66,434.29,177.78Z" transform="translate(10 7)"/><path class="cls-2" d="M491.47,145.8h7l.72,9.19h.29c3.51-6.41,8.67-10.44,14.35-10.44a11.67,11.67,0,0,1,5.39,1l-1.6,7.49a14.21,14.21,0,0,0-4.89-.83c-4.27,0-9.36,3.07-12.77,11.61v32.42h-8.54Z" transform="translate(10 7)"/><path class="cls-2" d="M527.5,145.8h7.06l.72,9.19h.28c3.52-6.41,8.68-10.44,14.36-10.44a11.69,11.69,0,0,1,5.39,1l-1.6,7.49a14.27,14.27,0,0,0-4.9-.83c-4.26,0-9.35,3.07-12.77,11.61v32.42H527.5Z" transform="translate(10 7)"/><path class="cls-2" d="M558.75,171.1c0-16.43,11.07-26.55,22.69-26.55,12.88,0,20.15,9.25,20.15,23.69a26.7,26.7,0,0,1-.4,4.85h-34c.62,10.69,7.15,17.63,16.78,17.63a22.08,22.08,0,0,0,12.56-4l3.06,5.61a29.74,29.74,0,0,1-16.67,5.23C569.46,197.52,558.75,187.69,558.75,171.1ZM594,167c0-10.11-4.55-15.61-12.44-15.61-7.1,0-13.44,5.69-14.48,15.61Z" transform="translate(10 7)"/><path class="cls-2" d="M614,145.8h7.06l.72,7.28h.28c4.81-4.74,10-8.53,16.94-8.53,10.63,0,15.41,6.86,15.41,19.74v32h-8.54V165.39c0-9.4-2.84-13.42-9.53-13.42-5.16,0-8.73,2.63-13.8,7.75v36.56H614Z" transform="translate(10 7)"/><path class="cls-2" d="M667.07,171.1c0-16.84,11.38-26.55,24.29-26.55a21.24,21.24,0,0,1,14.77,5.92l-4.37,5.65c-2.94-2.65-6-4.46-10-4.46-9.14,0-15.84,7.87-15.84,19.44s6.33,19.31,15.61,19.31c4.62,0,8.71-2.24,11.85-5l3.71,5.73a24.57,24.57,0,0,1-16.32,6.41C677.31,197.52,667.07,187.82,667.07,171.1Z" transform="translate(10 7)"/><path class="cls-2" d="M713.74,217l1.67-6.8a13.16,13.16,0,0,0,3.85.75c5.69,0,9.29-4.57,11.38-10.83l1.15-3.73L711.53,145.8h8.81l10.3,27.94c1.58,4.39,3.28,9.56,4.92,14.22H736c1.43-4.59,2.87-9.76,4.24-14.22l9-27.94h8.37l-19,54.63c-3.56,10-8.78,17.6-18.9,17.6A16.21,16.21,0,0,1,713.74,217Z" transform="translate(10 7)"/><path class="cls-2" d="M90.83,250.64h9.42l22.2,65.64h-8.84l-11.45-36.66c-2.36-7.34-4.46-14.54-6.57-22.12h-.4c-2,7.61-4.14,14.78-6.5,22.12L77.12,316.28h-8.5Zm-10.53,39h30.22v6.66H80.3Z" transform="translate(10 7)"/><path class="cls-2" d="M127.35,292c0-16.22,11-25.57,23.39-25.57A20.43,20.43,0,0,1,165,272.17l-4.21,5.44c-2.83-2.56-5.82-4.3-9.64-4.3-8.81,0-15.26,7.58-15.26,18.72s6.09,18.6,15,18.6c4.45,0,8.39-2.16,11.42-4.84l3.56,5.51a23.63,23.63,0,0,1-15.71,6.18C137.21,317.48,127.35,308.13,127.35,292Z" transform="translate(10 7)"/><path class="cls-2" d="M170.85,292c0-16.22,11-25.57,23.39-25.57a20.43,20.43,0,0,1,14.22,5.71l-4.21,5.44c-2.83-2.56-5.82-4.3-9.64-4.3-8.81,0-15.26,7.58-15.26,18.72s6.09,18.6,15,18.6c4.45,0,8.39-2.16,11.42-4.84l3.56,5.51a23.63,23.63,0,0,1-15.71,6.18C180.71,317.48,170.85,308.13,170.85,292Z" transform="translate(10 7)"/><path class="cls-2" d="M214.35,292c0-16.22,10.61-25.57,22.52-25.57S259.4,275.81,259.4,292s-10.61,25.45-22.53,25.45S214.35,308.13,214.35,292Zm36.55,0c0-11.14-5.66-18.72-14-18.72s-14,7.58-14,18.72,5.66,18.6,14,18.6S250.9,303.17,250.9,292Z" transform="translate(10 7)"/><path class="cls-2" d="M271.51,298.47V267.66h8.22V297.4c0,9.06,2.74,12.93,9.17,12.93,5,0,8.42-2.46,13-8.19V267.66h8.23v48.62h-6.8l-.69-7.61h-.28c-4.5,5.3-9.36,8.81-16,8.81C276.11,317.48,271.51,310.87,271.51,298.47Z" transform="translate(10 7)"/><path class="cls-2" d="M326.56,267.66h6.79l.7,7h.27c4.63-4.56,9.63-8.22,16.31-8.22,10.24,0,14.84,6.61,14.84,19v30.8h-8.22V286.54c0-9.06-2.74-12.93-9.18-12.93-5,0-8.41,2.54-13.29,7.46v35.21h-8.22Z" transform="translate(10 7)"/><path class="cls-2" d="M382.7,301.25V274.37h-7.23v-6.23l7.6-.48,1-13.63h6.87v13.63H404.1v6.71H390.93v27c0,5.94,1.91,9.39,7.51,9.39a16.32,16.32,0,0,0,5.54-1.31l1.59,6.21a29.46,29.46,0,0,1-9,1.8C386.2,317.48,382.7,310.92,382.7,301.25Z" transform="translate(10 7)"/><rect class="cls-3" x="78" y="363" width="505" height="94"/><path class="cls-4" d="M138.31,418.3c-2.95,9.13-9.61,18.64-25.39,18.64-19.4,0-28.81-15.31-28.81-34,0-18.92,9.41-34.8,29.38-34.8,12.93,0,21.87,7.42,24.72,19.59h-2c-2.75-10.65-10.74-17.78-22.72-17.78-19.2,0-27.38,15.4-27.38,33,0,16.64,8.27,32.23,26.91,32.23,12.93,0,20.06-7.32,23.29-16.83Z" transform="translate(10 7)"/><path class="cls-4" d="M190.22,412.31c0,15.88-8.37,25-20.92,25s-20.44-9.6-20.44-24.82c0-16.35,9.22-25.1,20.91-25.1S190.22,396.53,190.22,412.31Zm-39.37.1c0,12.55,6.28,23.2,18.45,23.2s18.92-10,18.92-23.2c0-12.74-6.56-23.29-18.64-23.29C157.32,389.12,150.85,400,150.85,412.41Z" transform="translate(10 7)"/><path class="cls-4" d="M203.05,436V364.58H205V436Z" transform="translate(10 7)"/><path class="cls-4" d="M221.49,436V364.58h1.9V436Z" transform="translate(10 7)"/><path class="cls-4" d="M238.13,411.84c0,14.74,7.32,23.39,17.59,23.39,9.31,0,13.78-5,16.54-11.22h1.9c-2.85,7.41-8.27,12.93-18.35,12.93-14.54,0-19.58-13-19.58-24.72,0-15.12,8.17-24.63,19.77-24.63,14.64,0,19.21,12.84,19.21,21.87a19,19,0,0,1-.1,2.38Zm35.27-1.71c0-11.41-5.7-20.82-17.49-20.82-10.46,0-17.12,8.65-17.69,20.82Z" transform="translate(10 7)"/><path class="cls-4" d="M322.74,423.15c-2.85,10-9.31,14-18,14-12.36,0-20-9.51-20-24.72,0-14.93,8.36-24.82,20.44-24.82,10.36,0,16,7,17.49,14.36h-2c-1.9-7.13-6.47-12.64-15.69-12.64-12.17,0-18.26,10.83-18.26,23.1,0,13.12,6,23,18.07,23,8.18,0,13.4-4.38,16-12.27Z" transform="translate(10 7)"/><path class="cls-4" d="M329.11,388.73H338V373.05h1.9v15.68h11.79v1.72H339.85V426.2c0,5.13,1,8.93,6.95,8.93a11.6,11.6,0,0,0,3.8-.47v1.71a11.22,11.22,0,0,1-3.9.57c-6.27,0-8.75-2.76-8.75-11.22V390.45h-8.84Z" transform="translate(10 7)"/><path class="cls-4" d="M433.79,418.3c-3,9.13-9.6,18.64-25.39,18.64-19.39,0-28.81-15.31-28.81-34,0-18.92,9.42-34.8,29.38-34.8,12.93,0,21.87,7.42,24.72,19.59h-2C428.94,377,421,369.91,409,369.91c-19.2,0-27.38,15.4-27.38,33,0,16.64,8.27,32.23,26.91,32.23,12.93,0,20.06-7.32,23.29-16.83Z" transform="translate(10 7)"/><path class="cls-4" d="M478.66,425.34a83.52,83.52,0,0,0,.48,10.65h-1.9a83.33,83.33,0,0,1-.48-10.56c-2.57,8-8.56,11.7-17.21,11.7-11.41,0-15.88-6.75-15.88-13.5,0-10.17,7.89-14.36,21.11-14.36,5.42,0,8.56,0,12,.1v-6.66c0-6.84-2.85-13.4-14.07-13.4-10.46,0-14.07,5.22-14.74,12.45h-1.9c.38-6.84,4.18-14.17,16.73-14.17,11.32,0,15.88,6.28,15.88,14.55Zm-1.9-14.26c-3.23-.1-7.13-.1-12.07-.1-12.84,0-19,4.09-19,12.55,0,7.32,5.8,11.79,14,11.79,11,0,17.11-6.75,17.11-19.68Z" transform="translate(10 7)"/><path class="cls-4" d="M495.2,404.9c0-10.37,0-13.22-.09-16.17h1.8c.19,2.38.19,7.8.19,13.7,2.38-8.28,10.27-14.55,17.88-14.84v1.91c-9.7.38-17.88,10.07-17.88,21V436h-1.9Z" transform="translate(10 7)"/><path class="cls-4" d="M559,364.58v60.09c0,3.33.09,8.56.09,11.32h-1.8c-.1-1.62-.19-6.85-.19-11.89-2.19,6.94-6.85,13-17.88,13-10.27,0-19.49-8.08-19.49-24.25,0-17.11,9.89-25.29,20.73-25.29,11.69,0,15.5,8.09,16.64,11.22V364.58Zm-37.27,48.11c0,14.27,7.51,22.63,17.59,22.63,11.69,0,18-8,18-24,0-14-5.52-22-17-22S521.73,399.38,521.73,412.69Z" transform="translate(10 7)"/><image width="1540" height="662" transform="translate(734 200) scale(0.53 0.55)" xlink:href="C:%5CUsers%5CDreamploy%5CPictures%5Cdigital%20currency%20account.png"/></svg>